<svg width="20" height="20" viewBox="0 0 20 20" fill="none" xmlns="http://www.w3.org/2000/svg">
<g clip-path="url(#clip0_123_99)">
<path d="M13.9676 8.74765C14.3782 8.74878 14.785 8.66843 15.1644 8.51126C15.5438 8.35409 15.8882 8.12323 16.1777 7.83203L19.1856 4.82617C19.4235 4.58828 19.4453 4.20117 19.2188 3.95156C19.1619 3.88885 19.0929 3.83834 19.0159 3.80311C18.9389 3.76789 18.8556 3.74867 18.7709 3.74662C18.6863 3.74458 18.6021 3.75975 18.5235 3.79121C18.4449 3.82268 18.3735 3.86979 18.3137 3.92968L15.6328 6.60859C15.5428 6.69849 15.4208 6.74899 15.2936 6.74899C15.1663 6.74899 15.0443 6.69849 14.9543 6.60859C14.7672 6.42187 14.7774 6.10624 14.9641 5.91953L17.6332 3.25038C17.693 3.19055 17.7401 3.11919 17.7715 3.04063C17.803 2.96207 17.8181 2.87795 17.8161 2.79335C17.814 2.70876 17.7948 2.62547 17.7596 2.54852C17.7244 2.47157 17.674 2.40257 17.6113 2.3457C17.4982 2.2431 17.3508 2.18665 17.1981 2.18749C17.025 2.18761 16.8591 2.25646 16.7367 2.3789L14.0699 5.04531C13.9799 5.13521 13.8579 5.18571 13.7307 5.18571C13.6035 5.18571 13.4814 5.13521 13.3914 5.04531C13.2047 4.85859 13.2145 4.54296 13.4012 4.35624L16.0703 1.68788C16.1302 1.62805 16.1772 1.55669 16.2086 1.47813C16.2401 1.39957 16.2552 1.31545 16.2532 1.23086C16.2511 1.14626 16.2319 1.06297 16.1967 0.986022C16.1616 0.909072 16.1111 0.84007 16.0485 0.783197C15.9353 0.680604 15.7879 0.624154 15.6352 0.624994C15.4621 0.625199 15.2962 0.694034 15.1738 0.8164L12.168 3.82226C11.8768 4.11186 11.6459 4.45635 11.4887 4.8358C11.3315 5.21524 11.2512 5.6221 11.2524 6.03281V6.35429C11.2524 6.43648 11.2363 6.51788 11.2048 6.59383C11.1734 6.66977 11.1273 6.73877 11.0692 6.79687L9.67814 8.18828C9.66363 8.2028 9.64639 8.21433 9.62743 8.22219C9.60846 8.23005 9.58812 8.2341 9.56759 8.2341C9.54706 8.2341 9.52673 8.23005 9.50776 8.22219C9.48879 8.21433 9.47156 8.2028 9.45704 8.18828L2.68829 1.41913C2.57147 1.30218 2.41307 1.23627 2.24776 1.23583C2.08246 1.23539 1.92371 1.30046 1.80626 1.41679C1.21447 2.00312 0.898451 2.83085 0.898451 3.81015C0.894545 5.42734 1.74454 7.28671 3.11681 8.65703L6.4547 11.9949C6.92911 12.4684 7.57196 12.7343 8.2422 12.7344C8.45587 12.7345 8.66868 12.7072 8.8754 12.6531C8.92731 12.6395 8.98073 12.6326 9.03439 12.6324C9.19129 12.6324 9.34239 12.6917 9.45744 12.7984L9.90236 13.2094C10.0171 13.3266 10.0816 13.484 10.082 13.648V13.8644C10.0809 14.3564 10.2742 14.8289 10.6199 15.1789L14.1375 18.7559L14.141 18.7598C14.5314 19.1501 15.0609 19.3694 15.613 19.3694C16.1651 19.3693 16.6946 19.15 17.085 18.7596C17.4753 18.3691 17.6946 17.8396 17.6946 17.2876C17.6946 16.7355 17.4752 16.206 17.0848 15.8156L11.8121 10.543C11.7976 10.5285 11.7861 10.5112 11.7782 10.4923C11.7703 10.4733 11.7663 10.453 11.7663 10.4324C11.7663 10.4119 11.7703 10.3916 11.7782 10.3726C11.7861 10.3536 11.7976 10.3364 11.8121 10.3219L13.2031 8.93085C13.2612 8.87276 13.3301 8.82668 13.406 8.79525C13.4819 8.76381 13.5632 8.74764 13.6453 8.74765H13.9676Z" fill="black"/>
<path d="M8.2422 13.9844C7.24155 13.9823 6.28207 13.5858 5.57189 12.8809L5.03048 12.3395C4.9719 12.281 4.89253 12.2482 4.80978 12.2482C4.72703 12.2482 4.64766 12.281 4.58907 12.3395L1.26876 15.6426C0.676965 16.2344 0.465637 17.1055 0.758605 17.9586C0.775003 18.0067 0.794443 18.0536 0.816809 18.0992C1.21095 18.9063 1.97579 19.375 2.81251 19.375C3.10026 19.3757 3.38529 19.3193 3.65108 19.2091C3.91688 19.0988 4.15816 18.937 4.36095 18.7328L8.78907 14.2836C8.80771 14.2646 8.82198 14.2417 8.83089 14.2166C8.83979 14.1915 8.84312 14.1648 8.84064 14.1383V14.1281C8.8389 14.1038 8.83225 14.08 8.82108 14.0583C8.80992 14.0366 8.79447 14.0174 8.77567 14.0018C8.75687 13.9862 8.73512 13.9746 8.71171 13.9676C8.6883 13.9607 8.66372 13.9585 8.63946 13.9613C8.50754 13.976 8.37493 13.9837 8.2422 13.9844Z" fill="black"/>
</g>
<defs>
<clipPath id="clip0_123_99">
<rect width="20" height="20" fill="white"/>
</clipPath>
</defs>
</svg>
