<svg width="20" height="20" viewBox="0 0 20 20" fill="none" xmlns="http://www.w3.org/2000/svg">
<path d="M11.3258 9.99999L15.0368 6.28906C15.2129 6.11325 15.3119 5.87467 15.3122 5.62582C15.3124 5.37697 15.2137 5.13822 15.0379 4.9621C14.8621 4.78598 14.6235 4.68692 14.3747 4.6867C14.1258 4.68648 13.8871 4.78512 13.711 4.96093L10 8.67187L6.2891 4.96093C6.11298 4.78481 5.87411 4.68587 5.62504 4.68587C5.37597 4.68587 5.1371 4.78481 4.96098 4.96093C4.78486 5.13705 4.68591 5.37592 4.68591 5.62499C4.68591 5.87407 4.78486 6.11294 4.96098 6.28906L8.67191 9.99999L4.96098 13.7109C4.78486 13.8871 4.68591 14.1259 4.68591 14.375C4.68591 14.6241 4.78486 14.8629 4.96098 15.0391C5.1371 15.2152 5.37597 15.3141 5.62504 15.3141C5.87411 15.3141 6.11298 15.2152 6.2891 15.0391L10 11.3281L13.711 15.0391C13.8871 15.2152 14.126 15.3141 14.375 15.3141C14.6241 15.3141 14.863 15.2152 15.0391 15.0391C15.2152 14.8629 15.3142 14.6241 15.3142 14.375C15.3142 14.1259 15.2152 13.8871 15.0391 13.7109L11.3258 9.99999Z" fill="black"/>
</svg>
